P1
10 6
0111111110
0100000010
0100000010
0010000100
0001111000
0000000000
