P1
10 6
0000000000
1111111111
1000000001
0111111110
0000000000
0000000000
