P1
10 6
0000000000
0100000010
0011111100
0000000000
0000000000
0000000000
