P1
10 6
0001111000
0010000100
0010000100
0001001000
0000110000
0000000000
