P1
10 6
0000110000
0001001000
0001001000
0000110000
0000000000
0000000000
